<svg version="1.1" id="Layer_1" xmlns="http://www.w3.org/2000/svg" xmlns:xlink="http://www.w3.org/1999/xlink" x="0px" y="0px"
	 width="100%" viewBox="0 0 125 105" enable-background="new 0 0 125 105" xml:space="preserve">
<path fill="#000000" opacity="1.000000" stroke="none" 
	d="
M74.000000,106.000000 
	C49.333332,106.000000 25.166666,106.000000 1.000000,106.000000 
	C1.000000,71.000000 1.000000,36.000000 1.000000,1.000000 
	C42.666668,1.000000 84.333336,1.000000 126.000000,1.000000 
	C126.000000,36.000000 126.000000,71.000000 126.000000,106.000000 
	C108.833336,106.000000 91.666664,106.000000 74.000000,106.000000 
M89.108459,92.545387 
	C89.415695,92.644432 89.722931,92.743477 90.956390,92.966797 
	C98.521797,92.975304 106.087730,93.028587 113.652031,92.941216 
	C114.715164,92.928940 115.770355,92.228371 117.011673,91.097900 
	C115.050865,86.362106 113.090057,81.626305 111.061829,76.315987 
	C110.972511,75.749886 110.883194,75.183792 110.427887,74.007050 
	C109.656967,72.636536 108.886040,71.266022 108.014793,69.146233 
	C106.361313,65.383263 104.707840,61.620293 103.053963,57.110126 
	C101.393341,53.354542 99.732727,49.598961 98.060112,45.109272 
	C96.761055,42.352959 95.461998,39.596649 94.090935,36.087276 
	C91.752754,30.690405 89.414574,25.293533 86.981476,19.226233 
	C85.910484,17.815176 84.839493,16.404119 83.631104,14.318198 
	C79.907280,11.496606 76.376297,8.223382 70.610046,8.267868 
	C62.403416,8.246960 54.196789,8.226051 45.213211,8.068039 
	C38.373863,7.973174 35.699875,12.936392 33.005840,18.739462 
	C32.633247,20.121492 32.260654,21.503521 31.253113,23.237970 
	C29.464146,27.802813 27.675179,32.367657 25.289886,37.342060 
	C23.478447,42.207756 21.667007,47.073456 19.259583,52.315044 
	C18.129156,55.196396 16.998732,58.077747 15.288095,61.336262 
	C14.815542,62.843872 14.342990,64.351486 13.265018,66.227440 
	C12.444659,68.434044 11.624300,70.640640 10.333771,73.031570 
	C10.237228,73.332748 10.140686,73.633926 10.053852,74.625366 
	C10.105423,75.081955 10.156993,75.538551 9.811096,76.697495 
	C7.567960,84.378525 9.681078,88.604134 18.840982,93.023949 
	C35.243839,93.018509 51.646847,93.043686 68.049324,92.961479 
	C69.736519,92.953033 71.420509,92.303223 73.639076,91.560890 
	C72.786285,89.359688 71.933495,87.158485 70.970787,84.215363 
	C69.569511,80.587135 68.293953,76.903702 66.731621,73.346199 
	C65.168289,69.786407 62.632233,67.671379 58.339741,67.938591 
	C53.988537,68.209457 49.607330,67.998360 44.584641,67.998360 
	C45.181087,65.739708 45.543400,64.367699 46.239426,62.349842 
	C48.212551,57.613438 50.185677,52.877033 52.589348,47.898884 
	C52.886871,47.680302 53.002506,47.389454 53.232880,46.364155 
	C54.444550,43.241547 55.656223,40.118942 57.179420,36.365734 
	C58.141621,34.264954 59.103817,32.164177 60.106834,30.127798 
	C60.106834,30.127798 60.171303,30.087091 60.609020,30.243710 
	C60.868973,30.445726 61.017792,30.710270 60.902641,31.668087 
	C61.240063,32.131519 61.577484,32.594952 61.954453,33.055557 
	C61.954453,33.055557 61.928429,33.044624 61.908813,33.684906 
	C62.254078,34.144485 62.599339,34.604069 62.848072,35.061440 
	C62.848072,35.061440 62.842785,35.157848 62.947235,35.894379 
	C64.903381,40.297913 66.859520,44.701447 68.973137,49.826378 
	C70.291023,52.570839 71.608902,55.315300 72.995140,58.824467 
	C74.612923,62.897869 76.230698,66.971268 77.943604,71.801666 
	C79.927116,76.567719 81.910629,81.333771 83.969948,86.791321 
	C84.613693,87.887070 85.257431,88.982819 86.107384,90.542686 
	C86.387825,90.718994 86.668259,90.895302 87.224663,91.616859 
	C87.809700,91.774094 88.394730,91.931328 88.992462,92.029167 
	C88.992462,92.029167 88.936325,92.052361 89.108459,92.545387 
z"/>
<path fill="#374793" opacity="1.000000" stroke="none" 
	d="
M13.870437,65.859093 
	C14.342990,64.351486 14.815542,62.843872 15.989346,61.162186 
	C19.221197,61.706173 21.865585,62.159527 24.262062,63.189632 
	C33.103027,66.989822 41.908215,70.881180 50.636990,74.931908 
	C57.520054,78.126106 64.271057,81.604897 71.080711,84.957283 
	C71.933495,87.158485 72.786285,89.359688 72.902420,91.763077 
	C68.437675,91.940636 64.709579,91.916008 60.847694,91.582870 
	C59.735844,90.436241 58.887669,89.305634 57.759842,88.804825 
	C45.076115,83.172745 32.429680,77.440186 19.579134,72.211655 
	C16.269438,70.865044 14.234564,69.375069 13.870437,65.859093 
z"/>
<path fill="#3B5198" opacity="1.000000" stroke="none" 
	d="
M71.025749,84.586319 
	C64.271057,81.604897 57.520054,78.126106 50.636990,74.931908 
	C41.908215,70.881180 33.103027,66.989822 24.262062,63.189632 
	C21.865585,62.159527 19.221197,61.706173 16.279451,60.973602 
	C16.998732,58.077747 18.129156,55.196396 19.927204,52.221146 
	C29.031790,55.750057 37.468750,59.372875 45.905712,62.995689 
	C45.543400,64.367699 45.181087,65.739708 44.584641,67.998360 
	C49.607330,67.998360 53.988537,68.209457 58.339741,67.938591 
	C62.632233,67.671379 65.168289,69.786407 66.731621,73.346199 
	C68.293953,76.903702 69.569511,80.587135 71.025749,84.586319 
z"/>
<path fill="#405CA0" opacity="1.000000" stroke="none" 
	d="
M77.848480,71.044670 
	C76.230698,66.971268 74.612923,62.897869 73.183372,58.171951 
	C75.654800,54.107700 78.488602,51.941265 82.798889,51.025288 
	C88.021187,49.915489 92.992302,47.623703 98.072105,45.843376 
	C99.732727,49.598961 101.393341,53.354542 102.741356,57.675629 
	C100.731674,58.856998 98.923752,59.269623 97.356834,60.124157 
	C90.814621,63.692032 84.344826,67.392693 77.848480,71.044670 
z"/>
<path fill="#333A8A" opacity="1.000000" stroke="none" 
	d="
M71.125305,8.978415 
	C76.376297,8.223382 79.907280,11.496606 83.352737,14.698589 
	C78.580635,17.435560 74.092514,19.802938 69.591255,22.145075 
	C66.380295,23.815830 63.151684,25.452671 59.725769,26.828579 
	C55.692417,21.025145 51.864246,15.497779 48.406471,9.797439 
	C56.226345,9.409115 63.675827,9.193765 71.125305,8.978415 
z"/>
<path fill="#394893" opacity="1.000000" stroke="none" 
	d="
M87.076401,19.896660 
	C89.414574,25.293533 91.752754,30.690405 93.741356,36.474251 
	C87.007324,38.599514 80.639870,40.403904 74.231949,42.050880 
	C70.490173,43.012596 68.685524,45.267067 68.815666,49.104980 
	C66.859520,44.701447 64.903381,40.297913 63.257088,35.416241 
	C68.532967,32.391129 73.395508,29.607483 78.499374,27.375753 
	C82.249664,25.735899 85.993408,24.443430 87.076401,19.896660 
z"/>
<path fill="#4566A9" opacity="1.000000" stroke="none" 
	d="
M77.896042,71.423172 
	C84.344826,67.392693 90.814621,63.692032 97.356834,60.124157 
	C98.923752,59.269623 100.731674,58.856998 102.741562,58.049229 
	C104.707840,61.620293 106.361313,65.383263 107.989563,69.596794 
	C107.964333,70.047356 107.814156,70.199799 107.438629,70.209801 
	C101.189751,72.199219 95.164375,73.827515 89.496498,76.281525 
	C85.719170,77.917007 83.436211,81.263535 84.114059,85.913834 
	C84.040710,85.975784 83.894135,86.099823 83.894135,86.099823 
	C81.910629,81.333771 79.927116,76.567719 77.896042,71.423172 
z"/>
<path fill="#4873B4" opacity="1.000000" stroke="none" 
	d="
M48.036079,9.970413 
	C51.864246,15.497779 55.692417,21.025145 59.763996,27.200813 
	C60.062038,28.595108 60.116673,29.341101 60.171303,30.087091 
	C60.171303,30.087091 60.106834,30.127798 59.824677,30.184196 
	C58.136536,29.844318 56.730549,29.448046 55.324566,29.051771 
	C53.270321,28.312048 50.699226,28.726170 48.889378,27.741337 
	C43.475189,24.795189 38.358936,21.301523 33.126362,18.021622 
	C35.699875,12.936392 38.373863,7.973174 45.774307,8.346877 
	C46.902298,9.073948 47.469189,9.522181 48.036079,9.970413 
z"/>
<path fill="#3B5298" opacity="1.000000" stroke="none" 
	d="
M68.894402,49.465679 
	C68.685524,45.267067 70.490173,43.012596 74.231949,42.050880 
	C80.639870,40.403904 87.007324,38.599514 93.777359,36.850784 
	C95.461998,39.596649 96.761055,42.352959 98.066109,45.476326 
	C92.992302,47.623703 88.021187,49.915489 82.798889,51.025288 
	C78.488602,51.941265 75.654800,54.107700 73.149200,57.789597 
	C71.608902,55.315300 70.291023,52.570839 68.894402,49.465679 
z"/>
<path fill="#37408F" opacity="1.000000" stroke="none" 
	d="
M13.567726,66.043266 
	C14.234564,69.375069 16.269438,70.865044 19.579134,72.211655 
	C32.429680,77.440186 45.076115,83.172745 57.759842,88.804825 
	C58.887669,89.305634 59.735844,90.436241 60.383759,91.605957 
	C55.366222,91.927681 50.678829,91.917793 45.798786,91.640457 
	C41.311703,89.536034 37.005016,87.726906 32.729507,85.846893 
	C31.243893,85.193642 29.876051,84.269791 28.384617,83.633003 
	C22.340702,81.052460 16.269623,78.535530 10.208565,75.995140 
	C10.156993,75.538551 10.105423,75.081955 10.182770,74.103485 
	C10.488570,73.345390 10.652656,73.100609 10.803942,72.847244 
	C11.624300,70.640640 12.444659,68.434044 13.567726,66.043266 
z"/>
<path fill="#353B8A" opacity="1.000000" stroke="none" 
	d="
M10.009830,76.346313 
	C16.269623,78.535530 22.340702,81.052460 28.384617,83.633003 
	C29.876051,84.269791 31.243893,85.193642 32.729507,85.846893 
	C37.005016,87.726906 41.311703,89.536034 45.331413,91.666931 
	C42.240368,91.987129 39.421665,91.948860 36.608219,92.052826 
	C30.368301,92.283417 24.131025,92.585381 17.892672,92.858238 
	C9.681078,88.604134 7.567960,84.378525 10.009830,76.346313 
z"/>
<path fill="#405B9F" opacity="1.000000" stroke="none" 
	d="
M46.072571,62.672768 
	C37.468750,59.372875 29.031790,55.750057 20.225197,52.033195 
	C21.667007,47.073456 23.478447,42.207756 25.668346,37.160564 
	C26.046806,36.979069 26.190758,37.064327 26.131386,37.432289 
	C25.009796,41.866219 25.974874,44.335758 30.608448,45.372665 
	C34.775803,46.305241 39.063705,47.705315 42.657413,49.933186 
	C46.877144,52.549156 49.407097,51.254688 51.992294,48.005753 
	C52.048206,48.050201 52.158798,48.140629 52.158798,48.140629 
	C50.185677,52.877033 48.212551,57.613438 46.072571,62.672768 
z"/>
<path fill="#4667AA" opacity="1.000000" stroke="none" 
	d="
M56.867897,36.996334 
	C55.656223,40.118942 54.444550,43.241547 52.880455,46.746002 
	C52.528030,47.127846 52.116280,47.217602 51.806625,47.009811 
	C48.610920,45.577873 45.760555,44.259514 42.831139,43.149853 
	C37.308392,41.057854 31.740110,39.086079 26.190758,37.064327 
	C26.190758,37.064327 26.046806,36.979069 25.966507,36.955784 
	C27.675179,32.367657 29.464146,27.802813 31.573427,23.439350 
	C32.523010,25.837141 32.554508,29.430691 33.880741,29.998125 
	C41.248230,33.150322 48.243164,37.911518 56.867897,36.996334 
z"/>
<path fill="#4873B4" opacity="1.000000" stroke="none" 
	d="
M86.948692,91.071609 
	C86.668259,90.895302 86.387825,90.718994 86.021889,89.927338 
	C85.961700,88.542419 85.987015,87.772850 86.446342,87.002869 
	C95.188171,87.686584 101.192688,81.800514 108.410721,79.370064 
	C109.131157,79.127487 109.487244,77.802864 110.291855,76.960724 
	C110.757271,76.924179 110.943260,76.907349 111.129242,76.890511 
	C113.090057,81.626305 115.050865,86.362106 116.464096,91.493248 
	C107.284325,91.927017 98.652122,91.965439 89.748810,92.011230 
	C89.297234,92.029861 89.116783,92.041115 88.936325,92.052361 
	C88.936325,92.052361 88.992462,92.029167 88.758095,91.883270 
	C87.998718,91.515457 87.473701,91.293533 86.948692,91.071609 
z"/>
<path fill="#38418E" opacity="1.000000" stroke="none" 
	d="
M60.390160,30.165401 
	C60.116673,29.341101 60.062038,28.595108 59.969177,27.476883 
	C63.151684,25.452671 66.380295,23.815830 69.591255,22.145075 
	C74.092514,19.802938 78.580635,17.435560 83.421440,15.036022 
	C84.839493,16.404119 85.910484,17.815176 87.028938,19.561447 
	C85.993408,24.443430 82.249664,25.735899 78.499374,27.375753 
	C73.395508,29.607483 68.532967,32.391129 63.204865,35.047974 
	C62.842785,35.157848 62.848072,35.061440 62.809654,34.791420 
	C62.490295,34.029140 62.209362,33.536884 61.928429,33.044624 
	C61.928429,33.044624 61.954453,33.055557 61.879211,32.783901 
	C61.554470,32.020611 61.304974,31.528978 61.055473,31.037342 
	C61.017792,30.710270 60.868973,30.445726 60.390160,30.165401 
z"/>
<path fill="#466DB0" opacity="1.000000" stroke="none" 
	d="
M57.023659,36.681034 
	C48.243164,37.911518 41.248230,33.150322 33.880741,29.998125 
	C32.554508,29.430691 32.523010,25.837141 31.890902,23.263140 
	C32.260654,21.503521 32.633247,20.121492 33.066101,18.380543 
	C38.358936,21.301523 43.475189,24.795189 48.889378,27.741337 
	C50.699226,28.726170 53.270321,28.312048 55.324566,29.051771 
	C56.730549,29.448046 58.136536,29.844318 59.804268,30.151997 
	C59.103817,32.164177 58.141621,34.264954 57.023659,36.681034 
z"/>
<path fill="#5C5F97" opacity="1.000000" stroke="none" 
	d="
M18.366827,92.941093 
	C24.131025,92.585381 30.368301,92.283417 36.608219,92.052826 
	C39.421665,91.948860 42.240368,91.987129 45.524063,91.934387 
	C50.678829,91.917793 55.366222,91.927681 60.517551,91.914474 
	C64.709579,91.916008 68.437675,91.940636 72.635880,91.958130 
	C71.420509,92.303223 69.736519,92.953033 68.049324,92.961479 
	C51.646847,93.043686 35.243839,93.018509 18.366827,92.941093 
z"/>
<path fill="#6E8CB9" opacity="1.000000" stroke="none" 
	d="
M90.019920,92.003860 
	C98.652122,91.965439 107.284325,91.927017 116.372871,91.867493 
	C115.770355,92.228371 114.715164,92.928940 113.652031,92.941216 
	C106.087730,93.028587 98.521797,92.975304 90.485298,92.695107 
	C90.014206,92.423416 90.019920,92.003860 90.019920,92.003860 
z"/>
<path fill="#444B96" opacity="1.000000" stroke="none" 
	d="
M48.406471,9.797440 
	C47.469189,9.522181 46.902298,9.073948 46.162781,8.415428 
	C54.196789,8.226051 62.403416,8.246960 70.867676,8.623141 
	C63.675827,9.193765 56.226345,9.409115 48.406471,9.797440 
z"/>
<path fill="#4566A9" opacity="1.000000" stroke="none" 
	d="
M108.039726,69.971436 
	C108.886040,71.266022 109.656967,72.636536 110.395126,74.413002 
	C110.362358,74.818954 109.941750,75.041832 109.675087,74.834099 
	C108.876999,73.150841 108.345573,71.675323 107.814156,70.199799 
	C107.814156,70.199799 107.964333,70.047356 108.039726,69.971436 
z"/>
<path fill="#4566A9" opacity="1.000000" stroke="none" 
	d="
M86.012329,87.003288 
	C85.987015,87.772850 85.961700,88.542419 85.918777,89.695274 
	C85.257431,88.982819 84.613693,87.887070 83.932037,86.445572 
	C83.894135,86.099823 84.040710,85.975784 84.349136,86.044014 
	C85.109146,86.409264 85.560738,86.706276 86.012329,87.003288 
z"/>
<path fill="#394893" opacity="1.000000" stroke="none" 
	d="
M61.918621,33.364765 
	C62.209362,33.536884 62.490295,34.029140 62.857918,34.792522 
	C62.599339,34.604069 62.254078,34.144485 61.918621,33.364765 
z"/>
<path fill="#394893" opacity="1.000000" stroke="none" 
	d="
M60.979057,31.352715 
	C61.304974,31.528978 61.554470,32.020611 61.859436,32.785316 
	C61.577484,32.594952 61.240063,32.131519 60.979057,31.352715 
z"/>
<path fill="#4566A9" opacity="1.000000" stroke="none" 
	d="
M111.095535,76.603249 
	C110.943260,76.907349 110.757271,76.924179 110.283600,76.637764 
	C109.977867,75.903618 109.959808,75.472725 109.941750,75.041832 
	C109.941750,75.041832 110.362358,74.818954 110.578125,74.718323 
	C110.883194,75.183792 110.972511,75.749886 111.095535,76.603249 
z"/>
<path fill="#4566A9" opacity="1.000000" stroke="none" 
	d="
M87.086678,91.344238 
	C87.473701,91.293533 87.998718,91.515457 88.751747,91.912971 
	C88.394730,91.931328 87.809700,91.774094 87.086678,91.344238 
z"/>
<path fill="#353B8A" opacity="1.000000" stroke="none" 
	d="
M10.568856,72.939407 
	C10.652656,73.100609 10.488570,73.345390 10.177916,73.758354 
	C10.140686,73.633926 10.237228,73.332748 10.568856,72.939407 
z"/>
<path fill="#4566A9" opacity="1.000000" stroke="none" 
	d="
M89.748810,92.011230 
	C90.019920,92.003860 90.014206,92.423416 90.022186,92.632965 
	C89.722931,92.743477 89.415695,92.644432 89.022392,92.298874 
	C89.116783,92.041115 89.297234,92.029861 89.748810,92.011230 
z"/>
<path fill="#405B9F" opacity="1.000000" stroke="none" 
	d="
M52.116280,47.217602 
	C52.116280,47.217602 52.528030,47.127846 52.732140,47.077095 
	C53.002506,47.389454 52.886871,47.680302 52.374073,48.019756 
	C52.158798,48.140629 52.048206,48.050201 52.035980,47.819431 
	C52.023758,47.588661 52.116280,47.217602 52.116280,47.217602 
z"/>
<path fill="#456CAF" opacity="1.000000" stroke="none" 
	d="
M109.675087,74.834099 
	C109.959808,75.472725 109.977867,75.903618 110.004181,76.657471 
	C109.487244,77.802864 109.131157,79.127487 108.410721,79.370064 
	C101.192688,81.800514 95.188171,87.686584 86.446342,87.002869 
	C85.560738,86.706276 85.109146,86.409264 84.422485,85.982063 
	C83.436211,81.263535 85.719170,77.917007 89.496498,76.281525 
	C95.164375,73.827515 101.189751,72.199219 107.438629,70.209801 
	C108.345573,71.675323 108.876999,73.150841 109.675087,74.834099 
z"/>
<path fill="#4361A4" opacity="1.000000" stroke="none" 
	d="
M51.806625,47.009811 
	C52.116280,47.217602 52.023758,47.588661 51.980072,47.774982 
	C49.407097,51.254688 46.877144,52.549156 42.657413,49.933186 
	C39.063705,47.705315 34.775803,46.305241 30.608448,45.372665 
	C25.974874,44.335758 25.009796,41.866219 26.131386,37.432289 
	C31.740110,39.086079 37.308392,41.057854 42.831139,43.149853 
	C45.760555,44.259514 48.610920,45.577873 51.806625,47.009811 
z"/>
</svg>